<svg data-v-423bf9ae="" xmlns="http://www.w3.org/2000/svg" viewBox="0 0 457 90" class="iconLeft"><!----><!----><!----><g data-v-423bf9ae="" id="24c644e4-7906-4ffc-80b8-88bf5e195152" fill="black" transform="matrix(5.0718512535095215,0,0,5.0718512535095215,105.7396469116211,10.029585838317871)"><path d="M3.47 1.05L0.84 1.05L0.84 12.60L7.45 12.60L7.45 10.29L3.47 10.29ZM11.09 5.42L8.61 5.42L8.61 9.44C8.61 11.84 9.81 12.81 12.50 12.81C15.19 12.81 16.39 11.84 16.39 9.44L16.39 5.42L13.92 5.42L13.92 8.83C13.92 10.25 13.54 10.79 12.50 10.79C11.47 10.79 11.09 10.25 11.09 8.83ZM19.21 0.98C18.40 0.98 17.74 1.64 17.74 2.45C17.74 3.26 18.40 3.92 19.21 3.92C20.02 3.92 20.68 3.26 20.68 2.45C20.68 1.64 20.02 0.98 19.21 0.98ZM17.93 5.42L20.41 5.42L20.41 12.60L17.93 12.60ZM25.28 5.21C23.39 5.21 22.15 6.05 22.15 7.52C22.15 8.60 22.88 9.10 23.60 9.48C24.42 9.90 25.20 9.94 25.20 10.46C25.20 10.93 24.78 10.98 24.43 10.98C23.63 10.98 22.65 10.15 22.65 10.15L21.64 11.84C21.64 11.84 22.68 12.81 24.42 12.81C25.89 12.81 27.82 12.47 27.82 10.36C27.82 8.89 26.59 8.36 25.63 8.06C25.02 7.87 24.51 7.76 24.51 7.38C24.51 7.04 24.74 6.94 25.28 6.94C26.04 6.94 26.88 7.39 26.88 7.39L27.69 5.77C27.69 5.77 26.67 5.21 25.28 5.21ZM29.05 1.05L29.05 12.60L31.68 12.60L31.68 8.32L33.26 8.32C35.52 8.32 37.21 6.99 37.21 4.61C37.21 2.21 35.52 1.05 33.26 1.05ZM31.68 6.22L31.68 3.15L32.42 3.15C33.46 3.15 34.44 3.50 34.44 4.69C34.44 5.87 33.46 6.22 32.42 6.22ZM45.64 9.35C45.65 9.27 45.65 9.11 45.65 9.02C45.65 6.50 43.99 5.21 41.80 5.21C39.63 5.21 37.86 6.92 37.86 9.02C37.86 11.10 39.63 12.81 41.80 12.81C43.40 12.81 44.72 12.29 45.53 10.93L43.74 10.04C43.13 10.68 42.78 10.84 41.99 10.84C41.36 10.84 40.43 10.46 40.43 9.35ZM40.50 7.98C40.54 7.32 41.02 6.82 41.87 6.82C42.60 6.82 43.12 7.22 43.23 7.98ZM46.79 12.60L49.27 12.60L49.27 8.82C49.27 8.64 49.45 7.36 50.74 7.36C51.56 7.36 52.02 7.76 52.02 7.76L53.06 5.66C53.06 5.66 52.42 5.21 51.49 5.21C50.08 5.21 49.29 6.45 49.29 6.45L49.27 6.45L49.27 5.42L46.79 5.42ZM60.94 9.35C60.96 9.27 60.96 9.11 60.96 9.02C60.96 6.50 59.29 5.21 57.11 5.21C54.94 5.21 53.16 6.92 53.16 9.02C53.16 11.10 54.94 12.81 57.11 12.81C58.70 12.81 60.02 12.29 60.83 10.93L59.04 10.04C58.44 10.68 58.09 10.84 57.29 10.84C56.66 10.84 55.73 10.46 55.73 9.35ZM55.80 7.98C55.85 7.32 56.32 6.82 57.18 6.82C57.90 6.82 58.42 7.22 58.53 7.98ZM69.06 5.42L61.94 5.42L61.94 7.31L64.90 7.31L61.35 12.60L68.78 12.60L68.78 10.71L65.51 10.71Z"></path></g><!----><g data-v-423bf9ae="" id="85c9b999-1e35-4491-9105-d35ae2fc97cd" transform="matrix(2.8125,0,0,2.8125,0,0)" stroke="none" fill="black"><path d="M4.029 14.362L14.362 4.028l.707.707L4.736 15.07zM17.135 27.47L27.47 17.135l.707.707-10.333 10.333zM4.029 17.841l.707-.707 10.333 10.334-.707.707zM17.135 4.735l.708-.707L28.176 14.36l-.707.707z"></path><g><path d="M16 1.414l1.683 1.683L16 4.779l-1.683-1.683L16 1.414M16 0l-3.097 3.097L16 6.194l3.097-3.097L16 0zM16 27.221l1.683 1.683L16 30.586l-1.683-1.683L16 27.221m0-1.415l-3.097 3.097L16 32l3.097-3.097L16 25.806zM3.097 14.317L4.779 16l-1.683 1.683L1.414 16l1.683-1.683m0-1.414L0 16l3.097 3.097L6.194 16l-3.097-3.097zM28.903 14.317L30.586 16l-1.683 1.683L27.221 16l1.682-1.683m0-1.414L25.806 16l3.097 3.097L32 16l-3.097-3.097z"></path></g></g><!----></svg>